<?xml version="1.0" standalone="no"?>
<!DOCTYPE svg PUBLIC "-//W3C//DTD SVG 20010904//EN" "http://www.w3.org/TR/2001/REC-SVG-20010904/DTD/svg10.dtd">
<svg version="1.0" xmlns="http://www.w3.org/2000/svg"
     width="512pt" height="512pt" viewBox="0 0 512 512"
     preserveAspectRatio="xMidYMid meet">
    <g transform="translate(0,512) scale(0.1,-0.1)"
       fill="#000000" stroke="none">
        <path d="M2048 5110 c-492 -48 -950 -231 -1338 -533 -114 -89 -320 -295 -409
        -409 -302 -388 -485 -846 -533 -1338 -15 -156 -6 -472 19 -625 104 -644 442
        -1223 933 -1602 388 -302 846 -485 1338 -533 156 -15 472 -6 625 19 644 104
        1223 442 1602 933 302 388 485 846 533 1338 15 156 6 472 -19 625 -104 644
        -442 1223 -933 1602 -384 299 -832 480 -1321 533 -122 13 -375 12 -497 -1z"/>
    </g>
</svg> 